<mxfile host="app.diagrams.net" modified="2023-10-06T20:32:59.214Z" agent="Mozilla/5.0 (Macintosh; Intel Mac OS X 10_15_7) AppleWebKit/537.36 (KHTML, like Gecko) Chrome/111.0.0.0 Safari/537.36" version="22.0.3" etag="oryUxGD69C7FwCUTQbD1" type="github">
  <diagram name="Page-1" id="qYhF1dXvNjJPxpaopLxX">
    <mxGraphModel>
      <root>
        <mxCell id="0" />
        <mxCell id="1" parent="0" />
      </root>
    </mxGraphModel>
  </diagram>
</mxfile>
